PathFileType	4	(X/Y/Z)	C:\Users\°ÂÌØÂü\Desktop\20210112\bx_n_0_501-Unnamed.trc
DataRate	CameraRate	NumFrames	NumMarkers	Units	OrigDataRate	OrigDataStartFrame	OrigNumFrames
50.00	50.00	       9	0	mm	50.00	43	       339
Frame#	Time	
		

43	0.840	-624.13593	125.73027	1849.61682	-690.69708	270.04819	744.32776	-710.65692	285.59296	1537.04480	-584.02997	108.59459	1353.91284	-685.21820	283.67194	874.56372	-876.12219	-78.89765	141.41621	-659.71350	18.91518	519.66956	-722.98474	252.99594	642.92914	-678.82764	154.24155	158.65677	-582.93176	2.97308	804.00122	-758.75873	260.55359	500.97418	-546.71130	214.13084	165.49551	-546.57831	-13.39201	164.81245	-693.38428	74.64616	575.79242	-600.66339	38.09767	166.41995	-677.39600	58.63528	157.53568	-795.74585	180.62268	184.46397	-761.35590	224.01215	204.65924	-589.15918	184.76939	174.26471	-882.48743	296.05096	144.59955	-721.75372	246.36871	575.64642	-640.58508	274.46591	159.26930	-602.44604	274.89792	159.31224	-528.20984	304.20206	146.31906	-662.62988	-68.87234	1551.00427	-799.63879	87.83648	1061.96802	-590.43280	215.79475	793.88806				-794.36658	33.48835	174.80080	-745.17889	-50.46374	487.86365				-724.09216	71.21951	215.08484	-755.35364	-20.98850	206.54063	-695.09021	-37.30649	614.87354	-702.03583	-34.16516	567.36127	-719.59088	143.34081	217.43648				-599.86902	-61.28590	160.36650	-641.63586	-59.01237	163.45326	-671.92511	-61.90118	756.72205	-517.81085	-72.96118	143.22667							-591.80060	-5.04623	1054.15796	-605.81329	240.83174	1065.24744				-674.29169	197.48445	534.35553	-652.62067	-74.35967	872.20715	
44	0.860	-620.99377	125.82873	1849.54028	-691.01617	269.97696	744.17816	-708.43555	285.43610	1537.34119	-583.35333	108.67673	1353.28979	-685.46729	283.82339	874.56714	-876.14905	-78.79788	141.54057	-660.62634	19.45167	519.28644	-723.46344	253.05664	643.08942				-582.99908	3.01735	804.06146	-758.85449	260.49789	500.98880	-546.63855	214.03342	165.53169	-546.64209	-13.41979	164.73393	-693.64496	74.87269	575.72437	-600.50586	37.99617	166.54601	-677.39600	58.63528	157.53568	-795.79816	180.53258	184.46391	-761.51776	223.91751	204.91092	-589.05115	184.54454	174.46568	-882.57312	295.99908	144.56905	-721.87067	246.31331	575.52637	-640.53638	274.48032	159.21155	-602.37830	275.02774	159.50478	-528.20984	304.20206	146.31906	-660.51239	-68.91992	1551.27966	-800.02991	87.71964	1062.06055	-591.07751	216.26482	793.72906				-794.49896	33.35648	174.77301	-745.28192	-50.68469	487.90463				-724.09216	71.21951	215.08484	-755.09924	-21.59541	206.74081	-695.06244	-37.38975	614.82019	-702.26172	-34.41268	567.73291	-719.48578	143.25285	217.64728				-599.79321	-61.54538	160.40669	-641.70709	-59.35033	163.69958	-672.31598	-61.99019	756.86560	-517.80914	-72.82449	143.06458							-592.28479	-5.47691	1054.11157	-606.23163	240.79692	1065.16992				-674.70435	197.33199	534.59906	-652.95050	-74.67796	872.41919	
45	0.880	-617.23804	125.80081	1849.19153	-691.66144	270.09836	744.62677	-706.27197	285.73169	1537.56726	-582.11005	108.45940	1352.80969	-686.31769	283.16428	874.46143	-876.12219	-78.89765	141.41621	-660.61792	19.51159	519.12091	-723.85187	252.79112	642.89624	-678.57422	154.29410	158.60910	-583.22614	2.97779	804.18323	-759.13098	260.32974	500.83521	-546.77692	214.10699	165.45656	-546.89868	-13.21194	164.77380	-692.56555	74.43781	575.55273	-600.67542	38.05978	166.53455	-677.32556	58.59143	157.65460	-795.72003	180.54474	184.50000	-761.35376	223.80322	204.46208	-589.07629	184.68315	174.30763	-882.63922	295.98843	144.54166	-722.10333	246.27922	575.39661	-640.58508	274.46591	159.26930	-602.33783	274.86716	159.38959	-528.28076	304.14819	146.30215	-658.01654	-68.87795	1551.11975	-800.52423	87.49283	1062.42419	-591.28729	216.33032	793.78510				-794.56311	33.64503	174.96129	-745.28192	-50.68469	487.90463				-724.09216	71.21951	215.08484	-755.55737	-21.22461	206.62099	-695.28021	-37.14968	614.87744	-702.54486	-34.69011	567.84106	-719.32043	143.19331	217.55107				-599.53833	-61.58883	160.50919	-641.76111	-59.13056	163.45186	-672.61407	-61.97800	756.71240	-517.74951	-72.96972	143.14218							-592.78033	-5.35131	1053.71423	-607.00836	240.81445	1064.94202				-674.78882	197.45271	534.60016	-653.69684	-74.57610	872.50482	
46	0.900	-613.40717	125.49255	1848.89783	-691.85559	269.89120	744.63641	-703.78107	285.27435	1537.55823	-580.77875	108.12871	1352.33911	-687.10309	282.94678	874.65686	-876.12219	-78.89765	141.41621	-660.76959	19.38017	519.21613	-724.37604	252.61882	642.93634	-678.96869	154.47113	158.52850	-583.81268	3.05182	804.24335	-759.26648	260.22546	500.97159	-546.70087	214.21989	165.34016	-546.88519	-13.23537	164.61987	-692.72308	74.62038	575.46368	-600.66339	38.09767	166.41995	-677.24591	58.41585	157.54445	-795.79816	180.53258	184.46391	-761.46869	224.06549	204.58650	-589.28436	184.46332	174.24863	-882.69641	295.99887	144.54427	-722.22839	245.94704	575.39081	-640.60620	274.46536	159.44821	-602.23157	275.01941	159.54578	-528.15417	304.13843	146.18021	-655.76874	-68.91889	1550.87109	-800.89478	87.38943	1062.79285	-591.81909	216.28749	793.58966				-794.49896	33.35648	174.77301	-745.67273	-50.91485	488.01038				-724.09216	71.21951	215.08484	-755.26538	-21.29169	206.53493	-695.39459	-37.13072	614.71918	-702.77856	-34.55013	567.63727	-719.45422	143.21941	217.63297				-599.67944	-61.38155	160.50717	-641.65955	-59.19395	163.88208	-673.03198	-62.18981	756.77380	-517.82312	-72.74570	142.93275							-593.47308	-5.65646	1053.76233	-607.42444	240.40378	1064.99854				-675.05933	197.60822	534.52747	-654.41760	-74.09740	871.94653	
47	0.920	-609.32910	125.73582	1848.57568	-692.63965	269.73740	744.60968	-701.06366	285.38370	1537.76257	-579.62000	108.18682	1351.49146	-687.57965	282.98032	874.43311	-876.12219	-78.89765	141.41621	-660.91229	19.34839	519.20117	-724.67316	252.33218	642.81976	-678.82764	154.24155	158.65677	-584.65588	3.28676	804.47644	-759.46332	260.16724	500.75479	-546.79071	214.17738	165.57211	-546.89471	-13.13890	164.66409	-692.76514	74.73885	575.67639	-600.64929	38.12981	166.43150	-677.32556	58.59143	157.65460	-795.88800	180.52383	184.41405	-761.40326	223.99527	204.42097	-589.26721	184.38972	174.32945	-882.65430	296.16803	144.63956	-723.05164	246.07184	575.53082	-640.80322	274.54990	159.38300	-602.33014	274.91199	159.51752	-528.27087	304.22754	146.42125	-652.99567	-68.76182	1550.98584	-801.35034	87.42003	1063.00269	-592.81879	215.96202	793.70343				-793.79871	32.93184	174.29492	-746.02576	-50.85630	487.95920				-724.09216	71.21951	215.08484	-755.30725	-21.21024	206.57858	-695.86798	-37.12717	614.57703	-702.77850	-34.49105	567.70215	-719.79254	143.30026	217.71178				-599.86902	-61.28590	160.36650	-641.64160	-59.19513	163.52153	-674.02612	-62.40475	756.58234	-517.88635	-72.87172	143.24289							-593.83484	-5.80534	1054.02734	-607.79462	240.57266	1064.79419				-675.26733	197.36575	534.56378	-655.02588	-74.39824	872.06451	
48	0.940	-604.91217	125.67786	1847.99878	-693.37256	269.24615	744.32050	-698.18530	284.97769	1537.91882	-578.08618	108.02537	1350.95483	-688.35742	282.50809	874.54614	-876.31458	-78.92422	141.43286	-661.06738	19.33638	519.33789	-725.36035	252.54156	642.96704	-678.82764	154.24155	158.65677	-585.51117	2.42425	804.37170	-760.06293	259.92307	500.56329	-546.89905	214.28336	165.47023	-546.82819	-13.16676	164.73050	-693.38782	74.86274	576.04694	-600.60944	38.14583	166.45305	-677.39600	58.63528	157.53568	-795.80988	180.53600	184.45013	-761.44556	223.91451	204.35608	-589.06750	184.67661	174.41991	-882.64764	295.84735	144.41110	-723.47913	246.13077	575.56097	-640.55780	274.59814	159.51624	-602.44427	274.89609	159.35075	-528.29083	304.32431	146.31367	-650.07648	-68.97006	1550.77087	-801.85352	87.40787	1063.26746	-593.77448	215.84404	793.65381				-793.77649	33.07139	174.32559	-746.30432	-50.93541	487.89404				-724.09216	71.21951	215.08484	-755.30988	-21.34934	206.48553	-696.54803	-36.99864	614.68567	-703.26892	-34.57743	567.71063	-719.62781	143.20920	217.67616				-599.72784	-61.49318	160.36853	-641.64941	-59.35297	163.69994	-674.53436	-62.28910	756.56525	-517.83282	-72.87903	143.14296							-594.57843	-5.99229	1053.60681	-608.53595	240.11951	1064.45679				-675.84137	197.35529	534.79492	-655.69757	-74.40961	872.01617	
49	0.960	-600.36475	125.57518	1847.62048	-694.13031	269.47647	744.34052	-694.44275	285.88611	1537.88733	-576.77930	107.97742	1350.06006	-689.30231	282.32901	874.28516	-876.12219	-78.89765	141.41621	-661.15015	19.26585	519.39117	-725.89410	252.40526	642.90082	-678.57422	154.29410	158.60910	-586.00897	2.39131	804.49896	-760.56567	259.79047	500.40179	-546.84406	214.09296	165.46704	-546.89471	-13.13890	164.66409	-694.06128	74.40542	575.79626	-600.67542	38.05978	166.53455	-677.35968	58.50102	157.65634	-795.88800	180.52383	184.41405	-761.55743	224.03763	204.69490	-589.16119	184.79182	174.40720	-882.79480	296.08548	144.51094	-723.75122	245.96906	575.57153	-640.48676	274.36612	159.33282	-602.24493	274.67892	159.37187	-528.20984	304.20206	146.31906	-646.67676	-69.04570	1550.69910	-802.62067	86.96643	1063.73279	-593.98706	216.02853	793.96094				-793.79346	33.08127	174.45857	-746.54022	-50.98353	487.88010				-724.26880	70.99197	214.88300	-755.39960	-21.44851	206.55173	-696.91077	-37.12833	614.76788	-703.46881	-34.42223	567.57452	-719.61560	143.28252	217.73302				-599.64240	-61.42886	160.33257	-641.71185	-59.25470	163.68936	-674.96918	-62.69036	756.99139	-517.78680	-72.81895	143.17857							-594.81146	-5.89398	1053.63831	-608.75037	239.98082	1064.27576				-676.34766	197.26155	534.64709	-656.69092	-74.55132	872.18799	
50	0.980	-595.46210	125.68605	1847.07617	-694.79688	269.32098	744.27643	-690.89349	286.02985	1538.07397	-574.98962	107.70602	1349.39380	-690.05682	283.01178	874.89233	-876.12219	-78.89765	141.41621	-660.83612	18.82147	519.43512	-726.71826	252.55052	642.96118	-678.82764	154.24155	158.65677	-586.62006	2.17391	804.92212	-760.97107	259.88773	500.46564	-546.91888	214.34274	165.48398	-546.82422	-13.09372	164.62077	-694.19562	74.53905	575.63525	-600.67542	38.05978	166.53455	-677.20947	58.58045	157.81796	-795.80463	180.60367	184.26506	-761.44556	223.91451	204.35608	-589.11938	184.63489	174.32146	-882.59491	296.21002	144.62416	-724.28259	245.77660	575.32977	-640.53638	274.48032	159.21155	-602.51660	274.88803	159.41031	-528.22827	304.14267	146.12067	-643.53528	-68.85887	1550.84180	-803.44397	87.05436	1064.45227	-594.72516	215.80626	793.98486				-793.78680	33.00082	174.33832	-746.78790	-51.18606	488.01413				-724.24652	70.67583	214.85881	-755.55981	-21.31374	206.51569	-697.36786	-37.16851	614.51959	-703.94342	-34.55779	567.75989	-719.45422	143.21941	217.63297				-599.76489	-61.44587	160.54312	-641.64160	-59.19513	163.52153	-676.13934	-62.53947	757.02625	-517.83282	-72.87903	143.14296							-595.78357	-6.29733	1053.38147	-609.04291	239.70248	1064.17041				-676.68634	197.07739	534.81903	-657.68530	-75.11333	872.72021	
51	1.000	-590.44586	125.41306	1846.37390	-695.66028	269.76096	744.71021	-687.88446	285.46512	1538.01257	-573.21472	107.65979	1348.51270	-691.52570	282.09628	874.47797	-876.12219	-78.89765	141.41621	-661.48987	18.66848	519.45093	-727.25574	252.42517	642.60510	-678.63599	154.05452	158.91254	-587.54468	2.16305	804.59198	-761.13232	259.99698	500.36139	-546.96625	214.17833	165.52815	-546.89471	-13.13890	164.66409				-600.70282	38.14729	166.42862	-677.32556	58.59143	157.65460	-795.88800	180.52383	184.41405	-761.67444	223.85916	204.70193	-589.54248	184.67151	174.27402	-882.53406	296.09598	144.57982	-725.09619	245.94167	575.59320	-640.58508	274.46591	159.26930	-602.33026	274.55505	159.21382	-528.29919	304.08884	146.10376	-639.94507	-69.15156	1550.44128	-803.87286	86.65868	1064.94080	-595.69086	215.73648	794.03528	-695.04907	73.65978	574.96313	-793.73914	32.89715	174.30406	-747.12866	-50.90209	487.65601				-724.38531	70.79870	214.77724	-755.55981	-21.31374	206.51569	-697.74335	-37.44136	615.01147	-704.45789	-34.59463	567.35815	-719.61560	143.28252	217.73302				-599.64056	-61.57295	160.74205	-641.78815	-59.02686	163.64391	-676.85236	-62.43469	756.93970	-517.83282	-72.87903	143.14296							-596.50977	-6.58104	1053.31885	-610.66180	239.28087	1063.96423				-677.11975	196.98553	534.86707	-658.73755	-75.13781	872.70557	
